<svg width="911" height="911" viewBox="0 0 911 911" fill="none" xmlns="http://www.w3.org/2000/svg">
<mask id="path-1-inside-1_403_581" fill="white">
<path fill-rule="evenodd" clip-rule="evenodd" d="M193.589 24C191.763 24 190.186 25.2428 189.617 26.977C183.325 46.1525 165.28 60 144 60C122.72 60 104.675 46.1525 98.3827 26.977C97.8137 25.2428 96.2365 24 94.4114 24H28C25.7909 24 24 25.7909 24 28L24 284.956C24 289.482 30.7217 290.66 32.4023 286.457C78.6191 170.882 170.811 78.6376 286.358 32.4019C290.559 30.7206 289.382 24 284.856 24H193.589ZM625.744 24C621.219 24 620.041 30.7206 624.243 32.4019C739.789 78.6376 831.981 170.882 878.198 286.457C879.878 290.659 886.6 289.482 886.6 284.956V28C886.6 25.7909 884.809 24 882.6 24H816.589C814.763 24 813.186 25.2428 812.617 26.977C806.325 46.1525 788.28 60 767 60C745.72 60 727.675 46.1525 721.383 26.977C720.814 25.2428 719.237 24 717.411 24H625.744ZM720.512 0H455.3H190.488H97.5122H24C10.7452 0 0 10.7451 0 24V455.5V887C0 900.255 10.7452 911 24 911H97.5122H190.488H455.3H720.512H813.488H886.6C899.855 911 910.6 900.255 910.6 887V455.5V24C910.6 10.7452 899.855 0 886.6 0H813.488H720.512ZM886.6 626.044C886.6 621.518 879.878 620.34 878.198 624.543C831.981 740.118 739.789 832.362 624.243 878.598C620.041 880.279 621.219 887 625.744 887H717.411C719.237 887 720.814 885.757 721.383 884.023C727.675 864.848 745.72 851 767 851C788.28 851 806.325 864.848 812.617 884.023C813.186 885.757 814.763 887 816.589 887H882.6C884.809 887 886.6 885.209 886.6 883V626.044ZM284.856 887C289.382 887 290.559 880.279 286.358 878.598C170.811 832.362 78.6191 740.118 32.4023 624.543C30.7217 620.341 24 621.518 24 626.044L24 883C24 885.209 25.7909 887 28 887H94.4114C96.2365 887 97.8137 885.757 98.3827 884.023C104.675 864.848 122.72 851 144 851C165.28 851 183.325 864.848 189.617 884.023C190.186 885.757 191.763 887 193.589 887H284.856Z"/>
</mask>
<path fill-rule="evenodd" clip-rule="evenodd" d="M193.589 24C191.763 24 190.186 25.2428 189.617 26.977C183.325 46.1525 165.28 60 144 60C122.72 60 104.675 46.1525 98.3827 26.977C97.8137 25.2428 96.2365 24 94.4114 24H28C25.7909 24 24 25.7909 24 28L24 284.956C24 289.482 30.7217 290.66 32.4023 286.457C78.6191 170.882 170.811 78.6376 286.358 32.4019C290.559 30.7206 289.382 24 284.856 24H193.589ZM625.744 24C621.219 24 620.041 30.7206 624.243 32.4019C739.789 78.6376 831.981 170.882 878.198 286.457C879.878 290.659 886.6 289.482 886.6 284.956V28C886.6 25.7909 884.809 24 882.6 24H816.589C814.763 24 813.186 25.2428 812.617 26.977C806.325 46.1525 788.28 60 767 60C745.72 60 727.675 46.1525 721.383 26.977C720.814 25.2428 719.237 24 717.411 24H625.744ZM720.512 0H455.3H190.488H97.5122H24C10.7452 0 0 10.7451 0 24V455.5V887C0 900.255 10.7452 911 24 911H97.5122H190.488H455.3H720.512H813.488H886.6C899.855 911 910.6 900.255 910.6 887V455.5V24C910.6 10.7452 899.855 0 886.6 0H813.488H720.512ZM886.6 626.044C886.6 621.518 879.878 620.34 878.198 624.543C831.981 740.118 739.789 832.362 624.243 878.598C620.041 880.279 621.219 887 625.744 887H717.411C719.237 887 720.814 885.757 721.383 884.023C727.675 864.848 745.72 851 767 851C788.28 851 806.325 864.848 812.617 884.023C813.186 885.757 814.763 887 816.589 887H882.6C884.809 887 886.6 885.209 886.6 883V626.044ZM284.856 887C289.382 887 290.559 880.279 286.358 878.598C170.811 832.362 78.6191 740.118 32.4023 624.543C30.7217 620.341 24 621.518 24 626.044L24 883C24 885.209 25.7909 887 28 887H94.4114C96.2365 887 97.8137 885.757 98.3827 884.023C104.675 864.848 122.72 851 144 851C165.28 851 183.325 864.848 189.617 884.023C190.186 885.757 191.763 887 193.589 887H284.856Z" fill="#161616"/>
<path d="M189.617 884.023L191.518 883.399L189.617 884.023ZM98.3827 884.023L96.4824 883.399L98.3827 884.023ZM32.4023 624.543L30.5453 625.286L32.4023 624.543ZM812.617 884.023L810.717 884.647L812.617 884.023ZM878.198 624.543L880.055 625.286L878.198 624.543ZM812.617 26.977L814.518 27.6005L812.617 26.977ZM624.243 878.598L624.986 880.455L624.243 878.598ZM721.383 884.023L723.283 884.647L721.383 884.023ZM721.383 26.977L723.283 26.3534L721.383 26.977ZM624.243 32.4019L623.5 34.2588L624.243 32.4019ZM878.198 286.457L880.055 285.714L878.198 286.457ZM286.358 32.4019L287.101 34.2588L286.358 32.4019ZM24 284.956L22 284.956L24 284.956ZM32.4023 286.457L34.2593 287.2L32.4023 286.457ZM98.3827 26.977L100.283 26.3534L98.3827 26.977ZM189.617 26.977L187.717 26.3534L189.617 26.977ZM144 62C166.17 62 184.964 47.5729 191.518 27.6005L187.717 26.3534C181.687 44.7321 164.39 58 144 58V62ZM96.4824 27.6005C103.036 47.5729 121.83 62 144 62V58C123.61 58 106.313 44.7321 100.283 26.3534L96.4824 27.6005ZM94.4114 22H28V26H94.4114V22ZM22 28L22 284.956L26 284.956L26 28L22 28ZM285.615 30.5451C169.56 76.9842 76.9652 169.632 30.5453 285.714L34.2593 287.2C80.273 172.133 172.063 80.291 287.101 34.2588L285.615 30.5451ZM284.856 22H193.589V26H284.856V22ZM880.055 285.714C833.635 169.632 741.041 76.9842 624.986 30.5451L623.5 34.2588C738.538 80.291 830.327 172.133 876.341 287.199L880.055 285.714ZM888.6 284.956V28H884.6V284.956H888.6ZM882.6 22H816.589V26H882.6V22ZM810.717 26.3535C804.687 44.7321 787.39 58 767 58V62C789.17 62 807.964 47.5729 814.518 27.6005L810.717 26.3535ZM767 58C746.61 58 729.313 44.7321 723.283 26.3534L719.482 27.6005C726.036 47.5729 744.83 62 767 62V58ZM717.411 22H625.744V26H717.411V22ZM720.512 -2H455.3V2H720.512V-2ZM455.3 -2H190.488V2H455.3V-2ZM190.488 -2H97.5122V2H190.488V-2ZM97.5122 -2H24V2H97.5122V-2ZM24 -2C9.6406 -2 -2 9.64058 -2 24H2C2 11.8497 11.8497 2 24 2V-2ZM-2 24V455.5H2V24H-2ZM-2 455.5V887H2V455.5H-2ZM-2 887C-2 901.359 9.64063 913 24 913V909C11.8498 909 2 899.15 2 887H-2ZM24 913H97.5122V909H24V913ZM97.5122 913H190.488V909H97.5122V913ZM190.488 913H455.3V909H190.488V913ZM455.3 913H720.512V909H455.3V913ZM720.512 913H813.488V909H720.512V913ZM813.488 913H886.6V909H813.488V913ZM886.6 913C900.96 913 912.6 901.359 912.6 887H908.6C908.6 899.15 898.75 909 886.6 909V913ZM912.6 887V455.5H908.6V887H912.6ZM912.6 455.5V24H908.6V455.5H912.6ZM912.6 24C912.6 9.64059 900.96 -2 886.6 -2V2C898.75 2 908.6 11.8497 908.6 24H912.6ZM886.6 -2H813.488V2H886.6V-2ZM813.488 -2H720.512V2H813.488V-2ZM624.986 880.455C741.041 834.016 833.635 741.368 880.055 625.286L876.341 623.8C830.327 738.867 738.538 830.709 623.5 876.741L624.986 880.455ZM625.744 889H717.411V885H625.744V889ZM723.283 884.647C729.313 866.268 746.61 853 767 853V849C744.83 849 726.036 863.427 719.482 883.399L723.283 884.647ZM767 853C787.39 853 804.687 866.268 810.717 884.647L814.518 883.399C807.964 863.427 789.17 849 767 849V853ZM816.589 889H882.6V885H816.589V889ZM888.6 883V626.044H884.6V883H888.6ZM30.5453 625.286C76.9652 741.368 169.56 834.016 285.615 880.455L287.101 876.741C172.063 830.709 80.273 738.867 34.2593 623.801L30.5453 625.286ZM22 626.044L22 883L26 883L26 626.044L22 626.044ZM28 889H94.4114V885H28V889ZM144 849C121.83 849 103.036 863.427 96.4824 883.399L100.283 884.647C106.313 866.268 123.61 853 144 853V849ZM191.518 883.399C184.964 863.427 166.17 849 144 849V853C164.39 853 181.687 866.268 187.717 884.647L191.518 883.399ZM193.589 889H284.856V885H193.589V889ZM187.717 884.647C188.531 887.128 190.824 889 193.589 889V885C192.703 885 191.841 884.387 191.518 883.399L187.717 884.647ZM94.4114 889C97.1764 889 99.4689 887.128 100.283 884.647L96.4824 883.399C96.1585 884.387 95.2966 885 94.4114 885V889ZM22 883C22 886.314 24.6863 889 28 889V885C26.8955 885 26 884.105 26 883L22 883ZM285.615 880.455C286.635 880.863 287.121 881.892 286.91 883.081C286.701 884.262 285.918 885 284.856 885V889C288.319 889 290.388 886.378 290.849 883.778C291.308 881.186 290.282 878.014 287.101 876.741L285.615 880.455ZM34.2593 623.801C32.9868 620.618 29.8146 619.592 27.2222 620.051C24.6229 620.511 22 622.58 22 626.044L26 626.044C26 624.981 26.738 624.199 27.9197 623.99C29.1083 623.779 30.1372 624.265 30.5453 625.286L34.2593 623.801ZM882.6 889C885.914 889 888.6 886.314 888.6 883H884.6C884.6 884.105 883.705 885 882.6 885V889ZM810.717 884.647C811.531 887.128 813.824 889 816.589 889V885C815.703 885 814.841 884.387 814.518 883.399L810.717 884.647ZM880.055 625.286C880.463 624.265 881.492 623.779 882.681 623.989C883.862 624.199 884.6 624.981 884.6 626.044H888.6C888.6 622.58 885.977 620.511 883.378 620.051C880.786 619.592 877.613 620.618 876.341 623.8L880.055 625.286ZM816.589 22C813.824 22 811.531 23.8722 810.717 26.3535L814.518 27.6005C814.841 26.6134 815.703 26 816.589 26V22ZM623.5 876.741C620.318 878.014 619.292 881.186 619.751 883.778C620.212 886.378 622.281 889 625.744 889V885C624.682 885 623.899 884.262 623.69 883.081C623.479 881.892 623.965 880.863 624.986 880.455L623.5 876.741ZM717.411 889C720.176 889 722.469 887.128 723.283 884.647L719.482 883.399C719.159 884.387 718.297 885 717.411 885V889ZM723.283 26.3534C722.469 23.8722 720.176 22 717.411 22V26C718.297 26 719.159 26.6134 719.482 27.6005L723.283 26.3534ZM888.6 28C888.6 24.6863 885.914 22 882.6 22V26C883.705 26 884.6 26.8954 884.6 28H888.6ZM624.986 30.5451C623.965 30.1368 623.479 29.1079 623.69 27.9194C623.899 26.7378 624.682 26 625.744 26V22C622.281 22 620.212 24.6225 619.751 27.2216C619.292 29.8137 620.318 32.9857 623.5 34.2588L624.986 30.5451ZM876.341 287.199C877.613 290.382 880.786 291.408 883.378 290.949C885.977 290.489 888.6 288.42 888.6 284.956H884.6C884.6 286.019 883.862 286.801 882.68 287.01C881.492 287.221 880.463 286.735 880.055 285.714L876.341 287.199ZM287.101 34.2588C290.282 32.9857 291.308 29.8137 290.849 27.2215C290.388 24.6225 288.319 22 284.856 22V26C285.918 26 286.701 26.7378 286.91 27.9194C287.121 29.1079 286.635 30.1368 285.615 30.5451L287.101 34.2588ZM22 284.956C22 288.42 24.6229 290.489 27.2222 290.949C29.8145 291.408 32.9868 290.382 34.2593 287.2L30.5453 285.714C30.1372 286.735 29.1083 287.221 27.9196 287.01C26.7379 286.801 26 286.019 26 284.956L22 284.956ZM28 22C24.6863 22 22 24.6863 22 28L26 28C26 26.8954 26.8954 26 28 26V22ZM100.283 26.3534C99.4689 23.8722 97.1764 22 94.4114 22V26C95.2966 26 96.1585 26.6134 96.4824 27.6005L100.283 26.3534ZM191.518 27.6005C191.841 26.6134 192.703 26 193.589 26V22C190.824 22 188.531 23.8722 187.717 26.3534L191.518 27.6005Z" fill="#808080" mask="url(#path-1-inside-1_403_581)"/>
</svg>
