<svg width="132" height="97" viewBox="0 0 132 97" fill="none" xmlns="http://www.w3.org/2000/svg">
<g clip-path="url(#clip0_348_427)">
<path d="M2.44594 10.2136H21.0636C22.1316 10.2136 23.0085 9.34787 23.0085 8.26859V2.44496C23.0085 1.37692 23.8742 0.5 24.9535 0.5H55.6344C56.7024 0.5 57.5793 1.36568 57.5793 2.44496V44.1323C57.5793 45.2003 56.7137 46.0772 55.6344 46.0772H44.7066C43.6386 46.0772 42.7617 45.2116 42.7617 44.1323V26.4028C42.7617 25.3348 41.896 24.4578 40.8167 24.4578H25.1109C24.0428 24.4578 23.1659 25.3235 23.1659 26.4028V44.1323C23.1659 45.2003 22.3003 46.0772 21.221 46.0772H2.44594C1.37789 46.0772 0.500977 45.2116 0.500977 44.1323V12.1585C0.500977 11.0905 1.36665 10.2136 2.44594 10.2136ZM42.7504 18.6342V16.8579C42.7504 15.7898 41.8847 14.9129 40.8055 14.9129H25.0209C23.9529 14.9129 23.076 15.7786 23.076 16.8579V18.6342C23.076 19.7022 23.9417 20.5792 25.0209 20.5792H40.8055C41.8735 20.5792 42.7504 19.7135 42.7504 18.6342Z" fill="white"/>
<path d="M64.3698 14.9129H65.1792C66.2473 14.9129 67.1242 14.0473 67.1242 12.968V2.44496C67.1242 1.37692 67.9899 0.5 69.0691 0.5H81.5371C82.6052 0.5 83.4821 1.36568 83.4821 2.44496V18.6342C83.4821 19.7022 82.6164 20.5792 81.5371 20.5792H69.0691C68.0011 20.5792 67.1242 21.4448 67.1242 22.5241C67.1242 23.5922 67.9899 24.4691 69.0691 24.4691H104.033C105.101 24.4691 105.978 25.3348 105.978 26.414V44.1435C105.978 45.2116 105.113 46.0885 104.033 46.0885H64.3698C63.3017 46.0885 62.4248 45.2228 62.4248 44.1435V16.8466C62.4248 15.7786 63.2905 14.9017 64.3698 14.9017V14.9129Z" fill="white"/>
<path d="M112.769 14.9129H113.578C114.646 14.9129 115.523 14.0473 115.523 12.968V2.44496C115.523 1.37692 116.389 0.5 117.468 0.5H129.936C131.004 0.5 131.881 1.36568 131.881 2.44496V18.6342C131.881 19.7022 131.015 20.5792 129.936 20.5792H117.468C116.4 20.5792 115.523 21.4448 115.523 22.5241C115.523 23.5922 116.389 24.4691 117.468 24.4691H129.936C131.004 24.4691 131.881 25.3348 131.881 26.414V44.1435C131.881 45.2116 131.015 46.0885 129.936 46.0885H112.78C111.712 46.0885 110.835 45.2228 110.835 44.1435V16.8466C110.835 15.7786 111.701 14.9017 112.78 14.9017L112.769 14.9129Z" fill="white"/>
<path d="M2.44594 65.3358H12.5642C13.6323 65.3358 14.5092 64.4701 14.5092 63.3908V52.8678C14.5092 51.7998 15.3749 50.9229 16.4541 50.9229H42.1096C43.1776 50.9229 44.0546 51.7885 44.0546 52.8678V69.0571C44.0546 70.1251 43.1889 71.002 42.1096 71.002H7.38141C6.31337 71.002 5.43645 71.8677 5.43645 72.947V80.0747C5.43645 81.1428 6.30212 82.0197 7.38141 82.0197H42.1096C43.1776 82.0197 44.0546 82.8854 44.0546 83.9647V94.5664C44.0546 95.6344 43.1889 96.5113 42.1096 96.5113H2.44594C1.37789 96.5113 0.500977 95.6457 0.500977 94.5664V67.292C0.500977 66.2239 1.36665 65.347 2.44594 65.347V65.3358Z" fill="white"/>
<path d="M50.8448 65.3358H51.6543C52.7224 65.3358 53.5993 64.4701 53.5993 63.3908V52.8678C53.5993 51.7998 54.4649 50.9229 55.5442 50.9229H68.0122C69.0802 50.9229 69.9572 51.7885 69.9572 52.8678V69.0571C69.9572 70.1251 69.0915 71.002 68.0122 71.002H55.5442C54.4762 71.002 53.5993 71.8677 53.5993 72.947C53.5993 74.015 54.4649 74.8919 55.5442 74.8919H68.0122C69.0802 74.8919 69.9572 75.7576 69.9572 76.8369V94.5664C69.9572 95.6344 69.0915 96.5113 68.0122 96.5113H50.8561C49.7881 96.5113 48.9111 95.6457 48.9111 94.5664V67.292C48.9111 66.2239 49.7768 65.347 50.8561 65.347L50.8448 65.3358Z" fill="white"/>
<path d="M76.7477 60.6476H95.3653C96.4334 60.6476 97.3103 59.782 97.3103 58.7027V52.879C97.3103 51.811 98.176 50.9341 99.2552 50.9341H129.936C131.004 50.9341 131.881 51.7998 131.881 52.879V94.5664C131.881 95.6344 131.015 96.5113 129.936 96.5113H119.008C117.94 96.5113 117.063 95.6456 117.063 94.5664V76.8369C117.063 75.7688 116.198 74.8919 115.118 74.8919H99.4127C98.3446 74.8919 97.4677 75.7576 97.4677 76.8369V94.5664C97.4677 95.6344 96.602 96.5113 95.5227 96.5113H76.7477C75.6797 96.5113 74.8027 95.6456 74.8027 94.5664V62.5926C74.8027 61.5245 75.6684 60.6476 76.7477 60.6476ZM117.063 69.057V67.2807C117.063 66.2127 116.198 65.3358 115.118 65.3358H99.334C98.2659 65.3358 97.389 66.2014 97.389 67.2807V69.057C97.389 70.1251 98.2547 71.002 99.334 71.002H115.118C116.187 71.002 117.063 70.1363 117.063 69.057Z" fill="white"/>
</g>
<defs>
<clipPath id="clip0_348_427">
<rect width="131.38" height="96" fill="white" transform="translate(0.500977 0.5)"/>
</clipPath>
</defs>
</svg>
